# xmcd CD database file
#
# Track frame offsets:
#	150
#	15582
#	31794
#	51040
#	68870
#	86685
#	100537
#	116140
#	138805
#	149142
#	164137
#	175682
#	194040
#	209260
#	221045
#
# Disc length: 3133 seconds
#
# Revision: 0
# Processed by: cddbd v1.5.1PL2 Copyright (c) Steve Scherf et al.
# Submitted via: CDex 1.50
#
DISCID=de0c3b0f
DTITLE=Various Artist - Music First vol 6
DYEAR=1900
DGENRE=Country
TTITLE0=patty loveless you can feel bad
TTITLE1=ricochet what do i know
TTITLE2=marcus hummon gods country
TTITLE3=joe diffie bigger than the beatles
TTITLE4=collin raye not that different
TTITLE5=stephanie bentley whos that girl
TTITLE6=james bonamy shes got a mind of her own
TTITLE7=joe diffie third rock from the sun
TTITLE8=ty herndon in your face
TTITLE9=lynyrd skynyrd white knuckle ride
TTITLE10=willie nelson on the road again
TTITLE11=charlie daniels long haired country boy
TTITLE12=rickey van shelton life turned her that way
TTITLE13=grorge jones white lightnin
TTITLE14=david allan coe the ride
EXTD=
EXTT0=
EXTT1=
EXTT2=
EXTT3=
EXTT4=
EXTT5=
EXTT6=
EXTT7=
EXTT8=
EXTT9=
EXTT10=
EXTT11=
EXTT12=
EXTT13=
EXTT14=
PLAYORDER=
